<?xml version="1.0" encoding="UTF-8" standalone="no"?>
<!-- Created with Inkscape (http://www.inkscape.org/) -->

<svg
   xmlns:dc="http://purl.org/dc/elements/1.1/"
   xmlns:cc="http://creativecommons.org/ns#"
   xmlns:rdf="http://www.w3.org/1999/02/22-rdf-syntax-ns#"
   xmlns:svg="http://www.w3.org/2000/svg"
   xmlns="http://www.w3.org/2000/svg"
   xmlns:sodipodi="http://sodipodi.sourceforge.net/DTD/sodipodi-0.dtd"
   xmlns:inkscape="http://www.inkscape.org/namespaces/inkscape"
   width="190mm"
   height="400mm"
   viewBox="0 0 673.22836 1417.3228"
   id="svg2"
   version="1.1"
   inkscape:version="0.91 r13725"
   sodipodi:docname="support.svg">
  <defs
     id="defs4" />
  <sodipodi:namedview
     id="base"
     pagecolor="#ffffff"
     bordercolor="#666666"
     borderopacity="1.0"
     inkscape:pageopacity="0.0"
     inkscape:pageshadow="2"
     inkscape:zoom="0.39416793"
     inkscape:cx="267.99157"
     inkscape:cy="743.70763"
     inkscape:document-units="px"
     inkscape:current-layer="layer1"
     showgrid="false"
     inkscape:window-width="1448"
     inkscape:window-height="861"
     inkscape:window-x="0"
     inkscape:window-y="0"
     inkscape:window-maximized="0" />
  <metadata
     id="metadata7">
    <rdf:RDF>
      <cc:Work
         rdf:about="">
        <dc:format>image/svg+xml</dc:format>
        <dc:type
           rdf:resource="http://purl.org/dc/dcmitype/StillImage" />
        <dc:title></dc:title>
      </cc:Work>
    </rdf:RDF>
  </metadata>
  <g
     inkscape:label="Calque 1"
     inkscape:groupmode="layer"
     id="layer1"
     transform="translate(0,364.96063)">
    <rect
       style="opacity:1;fill:#96783f;fill-opacity:1;fill-rule:nonzero;stroke:#000000;stroke-width:0.60860467;stroke-linecap:butt;stroke-linejoin:round;stroke-miterlimit:4;stroke-dasharray:none;stroke-dashoffset:0;stroke-opacity:1"
       id="rect4136"
       width="672.61975"
       height="1416.7142"
       x="0.30430233"
       y="-364.65637" />
    <rect
       style="opacity:1;fill:#ff0000;fill-opacity:1;fill-rule:nonzero;stroke:#000000;stroke-width:0.45732066;stroke-linecap:butt;stroke-linejoin:round;stroke-miterlimit:4;stroke-dasharray:none;stroke-dashoffset:0;stroke-opacity:1"
       id="rect4198"
       width="389.30646"
       height="34.97575"
       x="383.5679"
       y="-143.1703"
       transform="matrix(0,1,-1,0,0,0)" />
    <path
       transform="matrix(0,1,-1,0,0,0)"
       style="opacity:1;fill:#00ff00;fill-opacity:1;fill-rule:nonzero;stroke:#000000;stroke-width:0.5399574;stroke-linecap:butt;stroke-linejoin:round;stroke-miterlimit:4;stroke-dasharray:none;stroke-dashoffset:0;stroke-opacity:1"
       d="m 790.59859,-125.68243 a 17.446556,17.446556 0 0 1 -17.44655,17.44656 17.446556,17.446556 0 0 1 -17.44656,-17.44656 17.446556,17.446556 0 0 1 17.44656,-17.44655 17.446556,17.446556 0 0 1 17.44655,17.44655 z"
       id="circle4200" />
    <rect
       transform="matrix(0,-1,1,0,0,0)"
       y="530.05804"
       x="-783.02887"
       height="34.97575"
       width="389.30646"
       id="rect4252"
       style="opacity:1;fill:#ff0000;fill-opacity:1;fill-rule:nonzero;stroke:#000000;stroke-width:0.45732066;stroke-linecap:butt;stroke-linejoin:round;stroke-miterlimit:4;stroke-dasharray:none;stroke-dashoffset:0;stroke-opacity:1" />
    <path
       transform="matrix(0,-1,1,0,0,0)"
       style="opacity:1;fill:#00ff00;fill-opacity:1;fill-rule:nonzero;stroke:#000000;stroke-width:0.5399574;stroke-linecap:butt;stroke-linejoin:round;stroke-miterlimit:4;stroke-dasharray:none;stroke-dashoffset:0;stroke-opacity:1"
       d="m -375.99821,547.54596 a 17.446556,17.446556 0 0 1 -17.44655,17.44656 17.446556,17.446556 0 0 1 -17.44656,-17.44656 17.446556,17.446556 0 0 1 17.44656,-17.44656 17.446556,17.446556 0 0 1 17.44655,17.44656 z"
       id="circle4254" />
    <rect
       style="opacity:1;fill:#ff0000;fill-opacity:1;fill-rule:nonzero;stroke:#000000;stroke-width:0.45732066;stroke-linecap:butt;stroke-linejoin:round;stroke-miterlimit:4;stroke-dasharray:none;stroke-dashoffset:0;stroke-opacity:1"
       id="rect4258"
       width="389.30646"
       height="34.97575"
       x="-311.14883"
       y="108.19455"
       transform="matrix(0,-1,1,0,0,0)" />
    <path
       transform="matrix(0,-1,1,0,0,0)"
       style="opacity:1;fill:#00ff00;fill-opacity:1;fill-rule:nonzero;stroke:#000000;stroke-width:0.5399574;stroke-linecap:butt;stroke-linejoin:round;stroke-miterlimit:4;stroke-dasharray:none;stroke-dashoffset:0;stroke-opacity:1"
       d="M 95.881866,125.68243 A 17.446556,17.446556 0 0 1 78.43531,143.12898 17.446556,17.446556 0 0 1 60.988754,125.68243 17.446556,17.446556 0 0 1 78.43531,108.23587 17.446556,17.446556 0 0 1 95.881866,125.68243 Z"
       id="circle4260" />
    <rect
       transform="matrix(0,1,-1,0,0,0)"
       y="-565.03381"
       x="-95.923187"
       height="34.97575"
       width="389.30646"
       id="rect4264"
       style="opacity:1;fill:#ff0000;fill-opacity:1;fill-rule:nonzero;stroke:#000000;stroke-width:0.45732066;stroke-linecap:butt;stroke-linejoin:round;stroke-miterlimit:4;stroke-dasharray:none;stroke-dashoffset:0;stroke-opacity:1" />
    <path
       transform="matrix(0,1,-1,0,0,0)"
       style="opacity:1;fill:#00ff00;fill-opacity:1;fill-rule:nonzero;stroke:#000000;stroke-width:0.5399574;stroke-linecap:butt;stroke-linejoin:round;stroke-miterlimit:4;stroke-dasharray:none;stroke-dashoffset:0;stroke-opacity:1"
       d="m 311.10751,-547.54596 a 17.446556,17.446556 0 0 1 -17.44656,17.44656 17.446556,17.446556 0 0 1 -17.44656,-17.44656 17.446556,17.446556 0 0 1 17.44656,-17.44656 17.446556,17.446556 0 0 1 17.44656,17.44656 z"
       id="circle4266" />
    <rect
       style="opacity:1;fill:#ff0000;fill-opacity:1;fill-rule:nonzero;stroke:#000000;stroke-width:0.45732066;stroke-linecap:butt;stroke-linejoin:round;stroke-miterlimit:4;stroke-dasharray:none;stroke-dashoffset:0;stroke-opacity:1"
       id="rect4270"
       width="389.30646"
       height="34.97575"
       x="138.17957"
       y="-140.74117" />
    <path
       style="opacity:1;fill:#00ff00;fill-opacity:1;fill-rule:nonzero;stroke:#000000;stroke-width:0.5399574;stroke-linecap:butt;stroke-linejoin:round;stroke-miterlimit:4;stroke-dasharray:none;stroke-dashoffset:0;stroke-opacity:1"
       d="m 545.21023,-123.25328 a 17.446556,17.446556 0 0 1 -17.44656,17.44656 17.446556,17.446556 0 0 1 -17.44655,-17.44656 17.446556,17.446556 0 0 1 17.44655,-17.44656 17.446556,17.446556 0 0 1 17.44656,17.44656 z"
       id="circle4272" />
    <rect
       transform="scale(-1,-1)"
       y="-364.11465"
       x="-545.25153"
       height="34.97575"
       width="389.30646"
       id="rect4276"
       style="opacity:1;fill:#ff0000;fill-opacity:1;fill-rule:nonzero;stroke:#000000;stroke-width:0.45732066;stroke-linecap:butt;stroke-linejoin:round;stroke-miterlimit:4;stroke-dasharray:none;stroke-dashoffset:0;stroke-opacity:1" />
    <path
       transform="scale(-1,-1)"
       style="opacity:1;fill:#00ff00;fill-opacity:1;fill-rule:nonzero;stroke:#000000;stroke-width:0.5399574;stroke-linecap:butt;stroke-linejoin:round;stroke-miterlimit:4;stroke-dasharray:none;stroke-dashoffset:0;stroke-opacity:1"
       d="m -138.22085,-346.62677 a 17.446556,17.446556 0 0 1 -17.44655,17.44656 17.446556,17.446556 0 0 1 -17.44656,-17.44656 17.446556,17.446556 0 0 1 17.44656,-17.44656 17.446556,17.446556 0 0 1 17.44655,17.44656 z"
       id="circle4278" />
    <rect
       y="793.16699"
       x="138.17957"
       height="34.97575"
       width="389.30646"
       id="rect4288"
       style="opacity:1;fill:#ff0000;fill-opacity:1;fill-rule:nonzero;stroke:#000000;stroke-width:0.45732066;stroke-linecap:butt;stroke-linejoin:round;stroke-miterlimit:4;stroke-dasharray:none;stroke-dashoffset:0;stroke-opacity:1" />
    <path
       style="opacity:1;fill:#00ff00;fill-opacity:1;fill-rule:nonzero;stroke:#000000;stroke-width:0.5399574;stroke-linecap:butt;stroke-linejoin:round;stroke-miterlimit:4;stroke-dasharray:none;stroke-dashoffset:0;stroke-opacity:1"
       d="m 545.21023,810.65485 a 17.446556,17.446556 0 0 1 -17.44656,17.44655 17.446556,17.446556 0 0 1 -17.44655,-17.44655 17.446556,17.446556 0 0 1 17.44655,-17.44656 17.446556,17.446556 0 0 1 17.44656,17.44656 z"
       id="circle4290" />
    <rect
       style="opacity:1;fill:#ff0000;fill-opacity:1;fill-rule:nonzero;stroke:#000000;stroke-width:1;stroke-linecap:butt;stroke-linejoin:round;stroke-miterlimit:4;stroke-dasharray:none;stroke-dashoffset:0;stroke-opacity:1"
       id="rect4361"
       width="142.07143"
       height="81.18367"
       x="273.9949"
       y="-419.09189" />
    <rect
       y="1006.6964"
       x="256.23596"
       height="81.18367"
       width="142.07143"
       id="rect4363"
       style="opacity:1;fill:#ff0000;fill-opacity:1;fill-rule:nonzero;stroke:#000000;stroke-width:1;stroke-linecap:butt;stroke-linejoin:round;stroke-miterlimit:4;stroke-dasharray:none;stroke-dashoffset:0;stroke-opacity:1" />
    <rect
       style="opacity:1;fill:#ff0000;fill-opacity:1;fill-rule:nonzero;stroke:#000000;stroke-width:1;stroke-linecap:butt;stroke-linejoin:round;stroke-miterlimit:4;stroke-dasharray:none;stroke-dashoffset:0;stroke-opacity:1"
       id="rect4365"
       width="142.07143"
       height="81.18367"
       x="293.80234"
       y="-715.43103"
       transform="matrix(0,1,-1,0,0,0)" />
    <rect
       transform="matrix(0,1,-1,0,0,0)"
       y="-41.906803"
       x="270.96942"
       height="81.18367"
       width="142.07143"
       id="rect4367"
       style="opacity:1;fill:#ff0000;fill-opacity:1;fill-rule:nonzero;stroke:#000000;stroke-width:1;stroke-linecap:butt;stroke-linejoin:round;stroke-miterlimit:4;stroke-dasharray:none;stroke-dashoffset:0;stroke-opacity:1" />
  </g>
</svg>
